<?xml version="1.0" standalone="no"?>
<!DOCTYPE svg PUBLIC "-//W3C//DTD SVG 20010904//EN"
 "http://www.w3.org/TR/2001/REC-SVG-20010904/DTD/svg10.dtd">
<svg version="1.0" xmlns="http://www.w3.org/2000/svg"
 width="512.000000pt" height="512.000000pt" viewBox="0 0 512.000000 512.000000"
 preserveAspectRatio="xMidYMid meet">

<g transform="translate(0.000000,512.000000) scale(0.100000,-0.100000)"
fill="#000000" stroke="none">
<path d="M1495 4886 c-67 -21 -120 -53 -155 -92 -140 -160 -120 -460 45 -680
59 -77 104 -122 190 -187 83 -62 304 -177 341 -177 31 0 158 54 239 102 253
149 399 345 436 585 14 92 2 195 -31 269 -27 62 -94 130 -159 161 -49 24 -68
27 -151 28 -86 0 -101 -3 -162 -32 -37 -17 -89 -52 -116 -77 l-49 -46 -48 44
c-106 97 -262 139 -380 102z"/>
<path d="M3223 4616 c-301 -73 -467 -378 -410 -751 9 -55 18 -107 21 -115 3
-11 -23 -28 -95 -63 -191 -93 -388 -266 -520 -460 -52 -75 -64 -87 -73 -74 -6
8 -39 56 -74 105 -76 108 -238 269 -344 340 -251 169 -539 249 -810 223 -246
-24 -455 -118 -613 -276 -309 -308 -390 -873 -209 -1446 63 -197 81 -228 139
-229 27 0 33 -7 59 -65 27 -61 28 -66 12 -83 -9 -10 -16 -31 -16 -45 0 -29 68
-145 152 -260 27 -38 48 -70 46 -71 -2 -2 -66 -24 -143 -50 -77 -26 -155 -59
-174 -73 -40 -31 -70 -94 -71 -147 0 -51 34 -120 72 -147 17 -12 116 -52 222
-88 l191 -66 61 -175 c33 -96 69 -192 79 -213 54 -117 249 -129 317 -19 12 20
46 104 74 187 29 82 56 149 61 148 5 -1 59 -33 119 -71 139 -88 316 -184 471
-256 142 -65 369 -156 391 -156 25 0 286 107 440 181 390 186 712 409 988 684
216 216 373 432 499 690 154 314 224 599 225 915 l0 145 58 32 c93 51 202 132
214 159 9 18 9 33 1 53 -9 26 -7 31 43 74 48 43 55 46 78 36 43 -20 73 -3 139
81 120 151 202 315 248 495 30 118 33 343 5 445 -58 212 -202 359 -397 405
-84 19 -216 19 -298 -1 -143 -35 -307 -140 -396 -253 -22 -28 -42 -50 -46 -49
-3 2 -29 30 -57 64 -93 112 -242 205 -384 239 -76 18 -223 18 -295 1z m-2311
-2909 c7 -8 42 -98 77 -202 86 -251 75 -241 333 -329 154 -53 199 -72 204 -88
3 -12 0 -26 -7 -34 -8 -7 -99 -43 -204 -79 -249 -86 -237 -74 -325 -326 -37
-107 -75 -198 -84 -204 -33 -21 -50 10 -117 204 -87 252 -75 241 -324 327
-104 36 -195 70 -203 76 -7 6 -12 21 -10 32 3 18 34 32 196 88 107 38 207 77
223 89 39 28 56 63 124 264 64 188 82 216 117 182z"/>
</g>
</svg>
